<?xml version="1.0" encoding="utf-8"?>
<!-- Generator: Adobe Illustrator 26.0.3, SVG Export Plug-In . SVG Version: 6.00 Build 0)  -->
<svg version="1.1" id="Capa_1" xmlns="http://www.w3.org/2000/svg" xmlns:xlink="http://www.w3.org/1999/xlink" x="0px" y="0px"
	 viewBox="0 0 403.1 245.4" style="enable-background:new 0 0 403.1 245.4;" xml:space="preserve">
<style type="text/css">
	.st0{fill:#FFFFFF;}
</style>
<path class="st0" d="M390.7,86c-5.8-7.3-13.9-12.8-24.1-16.2c-2.5-0.9-3.4-4.2-1.6-6.1l26.1-27c0.6-0.7,1-1.5,1-2.5V3.5
	c0-1.9-1.5-3.5-3.4-3.5h-121h-9.3h-40.6c-1.9,0-3.4,1.6-3.4,3.5v94.3c0,10.5-2,18.4-6,23.6c-4,5.1-10.3,7.6-18.8,7.6
	c-8.5,0-14.8-2.5-19-7.6c-4-5.2-6-13.1-6-23.6V3.5c0-1.9-1.5-3.5-3.4-3.5h-50c-1.9,0-3.4,1.6-3.4,3.5v94.3c0,10.5-2,18.4-6,23.6
	c-4,5.1-10.3,7.6-18.8,7.6c-8.5,0-14.8-2.5-18.8-7.6c-4-5.2-6-13.1-6-23.6V3.5c0-1.9-1.5-3.5-3.4-3.5c-4.8,0-14,0-24.2,0
	C14.3,0,1.2,13.3,1.2,29.8c0,30.6,0,69.8,0,69.8c0,24.4,7.2,43.3,21.7,56.5C37.5,169.4,57.8,176,83.8,176c20.5,0,37.2-4.8,50.1-14.5
	c1.3-1,3.1-1,4.4,0c13,9.7,29.7,14.5,50.1,14.5c26.2,0,46.5-6.6,60.9-19.9c14.6-13.3,21.9-32.1,21.9-56.5V43.8h47.4
	c3,0,4.6,3.7,2.4,6l-18.1,18.8c-0.6,0.7-1,1.5-1,2.5v30.7c0,1.9,1.5,3.5,3.4,3.5h19c13.3,0,20,3.9,20,11.8c0,4.3-2,7.5-6,9.8
	c-4,2.3-9.3,3.4-15.9,3.4c-7.4,0-15.1-1.1-23.1-3.2c-5.9-1.6-11.5-3.8-16.9-6.5c-2.4-1.2-5.4,0.5-5.9,3.2c-1.2,7.6-5,20.8-16.4,32.1
	c-1.7,1.7-1.5,4.5,0.5,5.7c9.4,5.5,17.8,8.2,28.1,10.5c11.9,2.6,23.8,3.9,35.6,3.9c17.2,0,31.5-2.8,43.1-8.4
	c11.6-5.6,20.1-12.8,25.5-21.6c5.6-9,8.4-18.7,8.4-29C401.2,104.9,397.7,94.6,390.7,86z"/>
<path class="st0" d="M5.7,210.2V245H0v-34.8H5.7z M43.1,210.2v4.6h-9.2V245h-5.7v-30.1h-9.3v-4.6H43.1z M88.3,245.4
	c-2.3,0-4.4-0.4-6.3-1.2c-1.9-0.8-3.3-2-4.4-3.5c-1.1-1.5-1.6-3.2-1.6-5.2h6.1c0.1,1.5,0.7,2.7,1.8,3.7c1.1,1,2.6,1.4,4.4,1.4
	c2,0,3.5-0.5,4.6-1.4c1.1-1,1.6-2.2,1.6-3.7c0-1.2-0.4-2.1-1.1-2.9c-0.7-0.7-1.5-1.3-2.6-1.7c-1-0.4-2.4-0.8-4.2-1.3
	c-2.3-0.6-4.1-1.2-5.6-1.8c-1.4-0.6-2.6-1.6-3.6-2.9c-1-1.3-1.5-3-1.5-5.2c0-2,0.5-3.8,1.5-5.2s2.4-2.7,4.2-3.5s3.9-1.2,6.2-1.2
	c3.4,0,6.1,0.9,8.2,2.6c2.2,1.7,3.4,4,3.6,6.9h-6.3c-0.1-1.3-0.7-2.4-1.8-3.2s-2.6-1.4-4.4-1.4c-1.6,0-3,0.4-4,1.2
	c-1,0.8-1.5,2-1.5,3.6c0,1.1,0.3,2,0.9,2.6c0.7,0.7,1.5,1.2,2.5,1.6s2.4,0.8,4.1,1.3c2.3,0.6,4.2,1.3,5.6,1.9
	c1.5,0.6,2.7,1.6,3.7,2.9c1,1.3,1.6,3.1,1.6,5.2c0,1.8-0.5,3.4-1.4,5c-0.9,1.6-2.3,2.8-4.2,3.8C92.9,244.9,90.8,245.4,88.3,245.4z
	 M130.4,245.4c-3.2,0-6.2-0.8-8.9-2.2c-2.7-1.5-4.9-3.6-6.4-6.4c-1.6-2.7-2.4-5.8-2.4-9.2c0-3.4,0.8-6.4,2.4-9.1
	c1.6-2.7,3.8-4.8,6.4-6.3c2.7-1.5,5.7-2.3,8.9-2.3c3.3,0,6.2,0.8,8.9,2.3c2.7,1.5,4.9,3.6,6.5,6.3c1.6,2.7,2.3,5.8,2.3,9.1
	c0,3.4-0.8,6.5-2.3,9.2c-1.6,2.7-3.7,4.8-6.5,6.4C136.7,244.6,133.7,245.4,130.4,245.4z M130.4,240.4c2.3,0,4.4-0.5,6.2-1.5
	c1.8-1.1,3.2-2.6,4.2-4.5c1-2,1.6-4.2,1.6-6.8c0-2.6-0.5-4.8-1.6-6.8c-1-1.9-2.4-3.4-4.2-4.4c-1.8-1-3.9-1.6-6.2-1.6
	s-4.3,0.5-6.1,1.6c-1.8,1-3.2,2.5-4.2,4.4c-1,1.9-1.5,4.2-1.5,6.8c0,2.6,0.5,4.8,1.5,6.8c1,1.9,2.4,3.4,4.2,4.5
	C126.1,239.9,128.1,240.4,130.4,240.4z M167,240.4h11.8v4.6h-17.4v-34.8h5.7V240.4z M196.6,210.2v22.1c0,2.6,0.7,4.6,2.1,6
	c1.4,1.3,3.3,2,5.8,2c2.5,0,4.4-0.7,5.8-2c1.4-1.3,2.1-3.3,2.1-6v-22.1h5.7v22c0,2.8-0.6,5.2-1.9,7.2s-2.9,3.4-5,4.4
	c-2.1,1-4.3,1.5-6.8,1.5s-4.8-0.5-6.9-1.5c-2-1-3.6-2.4-4.9-4.4s-1.8-4.4-1.8-7.2v-22H196.6z M255.5,210.2v4.6h-9.2V245h-5.7v-30.1
	h-9.3v-4.6H255.5z M274.4,210.2V245h-5.7v-34.8H274.4z M305.3,245.4c-3.2,0-6.2-0.8-8.9-2.2c-2.7-1.5-4.9-3.6-6.5-6.4
	c-1.6-2.7-2.4-5.8-2.4-9.2c0-3.4,0.8-6.4,2.4-9.1c1.6-2.7,3.8-4.8,6.5-6.3c2.7-1.5,5.7-2.3,8.9-2.3c3.3,0,6.2,0.8,9,2.3
	c2.7,1.5,4.9,3.6,6.5,6.3c1.6,2.7,2.3,5.8,2.3,9.1c0,3.4-0.8,6.5-2.3,9.2c-1.6,2.7-3.7,4.8-6.5,6.4
	C311.5,244.6,308.5,245.4,305.3,245.4z M305.3,240.4c2.3,0,4.4-0.5,6.2-1.5c1.8-1.1,3.2-2.6,4.2-4.5c1-2,1.6-4.2,1.6-6.8
	c0-2.6-0.5-4.8-1.6-6.8c-1-1.9-2.4-3.4-4.2-4.4c-1.8-1-3.9-1.6-6.2-1.6c-2.3,0-4.3,0.5-6.1,1.6c-1.8,1-3.2,2.5-4.2,4.4
	c-1,1.9-1.5,4.2-1.5,6.8c0,2.6,0.5,4.8,1.5,6.8c1,1.9,2.5,3.4,4.2,4.5C300.9,239.9,303,240.4,305.3,240.4z M364.7,245H359l-17.1-26
	v26h-5.7v-34.8h5.7l17.1,25.9v-25.9h5.7V245z M391.1,245.4c-2.3,0-4.4-0.4-6.3-1.2c-1.9-0.8-3.3-2-4.4-3.5s-1.6-3.2-1.6-5.2h6.1
	c0.1,1.5,0.7,2.7,1.8,3.7c1.1,1,2.5,1.4,4.5,1.4c2,0,3.5-0.5,4.6-1.4c1.1-1,1.7-2.2,1.7-3.7c0-1.2-0.4-2.1-1.1-2.9
	c-0.7-0.7-1.5-1.3-2.5-1.7c-1-0.4-2.4-0.8-4.2-1.3c-2.3-0.6-4.1-1.2-5.5-1.8c-1.4-0.6-2.6-1.6-3.6-2.9c-1-1.3-1.5-3-1.5-5.2
	c0-2,0.5-3.8,1.5-5.2s2.4-2.7,4.2-3.5c1.8-0.8,3.9-1.2,6.2-1.2c3.4,0,6.1,0.9,8.2,2.6c2.2,1.7,3.4,4,3.6,6.9h-6.3
	c-0.1-1.3-0.7-2.4-1.8-3.2c-1.1-0.9-2.6-1.4-4.4-1.4c-1.6,0-3,0.4-4,1.2c-1,0.8-1.6,2-1.6,3.6c0,1.1,0.3,2,1,2.6
	c0.7,0.7,1.5,1.2,2.5,1.6s2.4,0.8,4.1,1.3c2.3,0.6,4.2,1.3,5.6,1.9c1.5,0.6,2.7,1.6,3.7,2.9c1,1.3,1.6,3.1,1.6,5.2
	c0,1.8-0.5,3.4-1.5,5c-0.9,1.6-2.3,2.8-4.1,3.8C395.7,244.9,393.6,245.4,391.1,245.4z"/>
</svg>
