<svg width="588" height="540" viewBox="0 0 588 540" fill="none" xmlns="http://www.w3.org/2000/svg">
<path d="M360.423 145C362.316 145 363.851 146.567 363.851 148.501V244.553C363.851 268.97 356.549 287.816 341.945 301.089C327.502 314.363 307.201 321 281.042 321C260.693 321 244.008 316.158 230.988 306.473C229.692 305.509 227.924 305.514 226.632 306.485C213.749 316.162 197.061 321 176.568 321C150.57 321 130.269 314.363 115.665 301.089C101.222 287.816 94.0002 268.97 94.0002 244.553C94.0002 244.553 94.0002 244.553 94.0002 244.553C94.0002 244.553 94.0001 205.337 94 174.754C94 158.317 107.053 145.001 123.15 145.001C133.38 145.001 142.61 145.001 147.385 145C149.278 145 150.811 146.568 150.811 148.501V242.832C150.811 253.32 152.817 261.186 156.829 266.43C160.841 271.51 167.1 274.05 175.605 274.05C184.111 274.05 190.37 271.51 194.382 266.43C198.394 261.186 200.4 253.32 200.4 242.832V148.501C200.4 146.567 201.935 145 203.829 145H253.782C255.676 145 257.211 146.567 257.211 148.501V242.832C257.211 253.32 259.217 261.186 263.229 266.43C267.401 271.51 273.741 274.05 282.246 274.05C290.752 274.05 297.01 271.51 301.022 266.43C305.034 261.186 307.041 253.32 307.041 242.832V148.501C307.041 146.567 308.576 145 310.469 145H360.423Z" fill="white"/>
<path d="M457.784 208.708C455.919 210.642 456.822 213.936 459.343 214.795C469.548 218.272 477.569 223.685 483.408 231.034C490.469 239.555 494 249.879 494 262.006C494 272.33 491.192 281.998 485.575 291.011C480.118 299.86 471.613 307.071 460.058 312.642C448.503 318.214 434.14 321 416.968 321C405.093 321 393.217 319.689 381.341 317.067C371.079 314.77 362.626 312.076 353.243 306.567C351.218 305.378 351.063 302.498 352.746 300.845C364.164 289.629 367.931 276.338 369.174 268.787C369.613 266.125 372.665 264.426 375.035 265.623C380.396 268.331 386.029 270.484 391.933 272.084C399.957 274.214 407.66 275.279 415.043 275.279C421.622 275.279 426.918 274.132 430.93 271.838C434.942 269.544 436.949 266.266 436.949 262.006C436.949 254.14 430.289 250.207 416.968 250.207H398.01C396.116 250.207 394.581 248.639 394.581 246.706V215.995C394.581 215.078 394.933 214.198 395.562 213.543L413.657 194.707C415.785 192.492 414.248 188.754 411.21 188.754H361.757C360.237 188.754 358.899 187.733 358.469 186.246L347.83 149.493C347.181 147.25 348.828 145 351.118 145H481.424C483.318 145 484.853 146.567 484.853 148.501V179.208C484.853 180.127 484.498 181.01 483.867 181.665L457.784 208.708Z" fill="white"/>
<path d="M98.45 355.25V390H92.75V355.25H98.45ZM135.884 355.25V359.9H126.634V390H120.934V359.9H111.634V355.25H135.884ZM181.095 390.35C178.761 390.35 176.661 389.95 174.795 389.15C172.928 388.317 171.461 387.15 170.395 385.65C169.328 384.15 168.795 382.4 168.795 380.4H174.895C175.028 381.9 175.611 383.133 176.645 384.1C177.711 385.067 179.195 385.55 181.095 385.55C183.061 385.55 184.595 385.083 185.695 384.15C186.795 383.183 187.345 381.95 187.345 380.45C187.345 379.283 186.995 378.333 186.295 377.6C185.628 376.867 184.778 376.3 183.745 375.9C182.745 375.5 181.345 375.067 179.545 374.6C177.278 374 175.428 373.4 173.995 372.8C172.595 372.167 171.395 371.2 170.395 369.9C169.395 368.6 168.895 366.867 168.895 364.7C168.895 362.7 169.395 360.95 170.395 359.45C171.395 357.95 172.795 356.8 174.595 356C176.395 355.2 178.478 354.8 180.845 354.8C184.211 354.8 186.961 355.65 189.095 357.35C191.261 359.017 192.461 361.317 192.695 364.25H186.395C186.295 362.983 185.695 361.9 184.595 361C183.495 360.1 182.045 359.65 180.245 359.65C178.611 359.65 177.278 360.067 176.245 360.9C175.211 361.733 174.695 362.933 174.695 364.5C174.695 365.567 175.011 366.45 175.645 367.15C176.311 367.817 177.145 368.35 178.145 368.75C179.145 369.15 180.511 369.583 182.245 370.05C184.545 370.683 186.411 371.317 187.845 371.95C189.311 372.583 190.545 373.567 191.545 374.9C192.578 376.2 193.095 377.95 193.095 380.15C193.095 381.917 192.611 383.583 191.645 385.15C190.711 386.717 189.328 387.983 187.495 388.95C185.695 389.883 183.561 390.35 181.095 390.35ZM223.17 390.35C219.937 390.35 216.954 389.6 214.22 388.1C211.52 386.567 209.37 384.45 207.77 381.75C206.204 379.017 205.42 375.95 205.42 372.55C205.42 369.15 206.204 366.1 207.77 363.4C209.37 360.7 211.52 358.6 214.22 357.1C216.954 355.567 219.937 354.8 223.17 354.8C226.437 354.8 229.42 355.567 232.12 357.1C234.854 358.6 237.004 360.7 238.57 363.4C240.137 366.1 240.92 369.15 240.92 372.55C240.92 375.95 240.137 379.017 238.57 381.75C237.004 384.45 234.854 386.567 232.12 388.1C229.42 389.6 226.437 390.35 223.17 390.35ZM223.17 385.4C225.47 385.4 227.52 384.883 229.32 383.85C231.12 382.783 232.52 381.283 233.52 379.35C234.554 377.383 235.07 375.117 235.07 372.55C235.07 369.983 234.554 367.733 233.52 365.8C232.52 363.867 231.12 362.383 229.32 361.35C227.52 360.317 225.47 359.8 223.17 359.8C220.87 359.8 218.82 360.317 217.02 361.35C215.22 362.383 213.804 363.867 212.77 365.8C211.77 367.733 211.27 369.983 211.27 372.55C211.27 375.117 211.77 377.383 212.77 379.35C213.804 381.283 215.22 382.783 217.02 383.85C218.82 384.883 220.87 385.4 223.17 385.4ZM259.729 385.4H271.479V390H254.029V355.25H259.729V385.4ZM289.396 355.25V377.4C289.396 380.033 290.079 382.017 291.446 383.35C292.846 384.683 294.779 385.35 297.246 385.35C299.746 385.35 301.679 384.683 303.046 383.35C304.446 382.017 305.146 380.033 305.146 377.4V355.25H310.846V377.3C310.846 380.133 310.229 382.533 308.996 384.5C307.763 386.467 306.113 387.933 304.046 388.9C301.979 389.867 299.696 390.35 297.196 390.35C294.696 390.35 292.413 389.867 290.346 388.9C288.313 387.933 286.696 386.467 285.496 384.5C284.296 382.533 283.696 380.133 283.696 377.3V355.25H289.396ZM348.218 355.25V359.9H338.968V390H333.268V359.9H323.968V355.25H348.218ZM367.19 355.25V390H361.49V355.25H367.19ZM398.024 390.35C394.79 390.35 391.807 389.6 389.074 388.1C386.374 386.567 384.224 384.45 382.624 381.75C381.057 379.017 380.274 375.95 380.274 372.55C380.274 369.15 381.057 366.1 382.624 363.4C384.224 360.7 386.374 358.6 389.074 357.1C391.807 355.567 394.79 354.8 398.024 354.8C401.29 354.8 404.274 355.567 406.974 357.1C409.707 358.6 411.857 360.7 413.424 363.4C414.99 366.1 415.774 369.15 415.774 372.55C415.774 375.95 414.99 379.017 413.424 381.75C411.857 384.45 409.707 386.567 406.974 388.1C404.274 389.6 401.29 390.35 398.024 390.35ZM398.024 385.4C400.324 385.4 402.374 384.883 404.174 383.85C405.974 382.783 407.374 381.283 408.374 379.35C409.407 377.383 409.924 375.117 409.924 372.55C409.924 369.983 409.407 367.733 408.374 365.8C407.374 363.867 405.974 362.383 404.174 361.35C402.374 360.317 400.324 359.8 398.024 359.8C395.724 359.8 393.674 360.317 391.874 361.35C390.074 362.383 388.657 363.867 387.624 365.8C386.624 367.733 386.124 369.983 386.124 372.55C386.124 375.117 386.624 377.383 387.624 379.35C388.657 381.283 390.074 382.783 391.874 383.85C393.674 384.883 395.724 385.4 398.024 385.4ZM457.433 390H451.733L434.583 364.05V390H428.883V355.2H434.583L451.733 381.1V355.2H457.433V390ZM483.868 390.35C481.535 390.35 479.435 389.95 477.568 389.15C475.701 388.317 474.235 387.15 473.168 385.65C472.101 384.15 471.568 382.4 471.568 380.4H477.668C477.801 381.9 478.385 383.133 479.418 384.1C480.485 385.067 481.968 385.55 483.868 385.55C485.835 385.55 487.368 385.083 488.468 384.15C489.568 383.183 490.118 381.95 490.118 380.45C490.118 379.283 489.768 378.333 489.068 377.6C488.401 376.867 487.551 376.3 486.518 375.9C485.518 375.5 484.118 375.067 482.318 374.6C480.051 374 478.201 373.4 476.768 372.8C475.368 372.167 474.168 371.2 473.168 369.9C472.168 368.6 471.668 366.867 471.668 364.7C471.668 362.7 472.168 360.95 473.168 359.45C474.168 357.95 475.568 356.8 477.368 356C479.168 355.2 481.251 354.8 483.618 354.8C486.985 354.8 489.735 355.65 491.868 357.35C494.035 359.017 495.235 361.317 495.468 364.25H489.168C489.068 362.983 488.468 361.9 487.368 361C486.268 360.1 484.818 359.65 483.018 359.65C481.385 359.65 480.051 360.067 479.018 360.9C477.985 361.733 477.468 362.933 477.468 364.5C477.468 365.567 477.785 366.45 478.418 367.15C479.085 367.817 479.918 368.35 480.918 368.75C481.918 369.15 483.285 369.583 485.018 370.05C487.318 370.683 489.185 371.317 490.618 371.95C492.085 372.583 493.318 373.567 494.318 374.9C495.351 376.2 495.868 377.95 495.868 380.15C495.868 381.917 495.385 383.583 494.418 385.15C493.485 386.717 492.101 387.983 490.268 388.95C488.468 389.883 486.335 390.35 483.868 390.35Z" fill="white"/>
</svg>
